<svg width="831" height="291" viewBox="0 0 831 291" fill="none" xmlns="http://www.w3.org/2000/svg">
<g filter="url(#filter0_d_2_267)">
<path d="M122.5 12.6188C127.45 9.76068 133.55 9.76068 138.5 12.6188L232.918 67.1312C237.869 69.9893 240.918 75.2714 240.918 80.9876V190.012C240.918 195.729 237.869 201.011 232.918 203.869L138.5 258.381C133.55 261.239 127.45 261.239 122.5 258.381L28.0818 203.869C23.1313 201.011 20.0818 195.729 20.0818 190.012V80.9876C20.0818 75.2714 23.1313 69.9893 28.0818 67.1312L122.5 12.6188Z" fill="white"/>
</g>
<path d="M130.491 137.477C127.776 137.477 125.349 137.045 123.213 136.182C121.088 135.307 119.418 134.125 118.202 132.636C116.997 131.136 116.395 129.443 116.395 127.557C116.395 126.114 116.741 124.79 117.435 123.585C118.128 122.381 119.065 121.381 120.247 120.585C121.44 119.778 122.77 119.261 124.236 119.034V118.761C122.315 118.409 120.741 117.517 119.514 116.085C118.298 114.653 117.69 112.977 117.69 111.057C117.69 109.239 118.241 107.619 119.344 106.199C120.457 104.778 121.974 103.659 123.895 102.841C125.827 102.023 128.026 101.614 130.491 101.614C132.957 101.614 135.151 102.023 137.071 102.841C139.003 103.659 140.52 104.778 141.622 106.199C142.736 107.619 143.293 109.239 143.293 111.057C143.293 112.989 142.673 114.67 141.435 116.102C140.207 117.523 138.645 118.409 136.747 118.761V119.034C138.202 119.261 139.52 119.778 140.702 120.585C141.895 121.381 142.838 122.381 143.531 123.585C144.236 124.79 144.588 126.114 144.588 127.557C144.588 129.443 143.98 131.136 142.764 132.636C141.548 134.125 139.878 135.307 137.753 136.182C135.639 137.045 133.219 137.477 130.491 137.477ZM130.491 131.494C131.526 131.494 132.435 131.301 133.219 130.915C134.003 130.517 134.616 129.966 135.06 129.261C135.514 128.557 135.741 127.761 135.741 126.875C135.741 125.966 135.514 125.159 135.06 124.455C134.605 123.75 133.98 123.199 133.185 122.801C132.401 122.392 131.503 122.188 130.491 122.188C129.491 122.188 128.594 122.392 127.798 122.801C127.003 123.199 126.378 123.75 125.923 124.455C125.469 125.159 125.241 125.966 125.241 126.875C125.241 127.761 125.463 128.557 125.906 129.261C126.361 129.955 126.98 130.5 127.764 130.898C128.56 131.295 129.469 131.494 130.491 131.494ZM130.491 116.239C131.378 116.239 132.162 116.057 132.844 115.693C133.537 115.33 134.077 114.824 134.463 114.176C134.861 113.528 135.06 112.795 135.06 111.977C135.06 111.159 134.861 110.438 134.463 109.812C134.077 109.188 133.543 108.699 132.861 108.347C132.179 107.983 131.389 107.801 130.491 107.801C129.605 107.801 128.815 107.983 128.122 108.347C127.429 108.699 126.889 109.188 126.503 109.812C126.116 110.438 125.923 111.159 125.923 111.977C125.923 112.795 126.116 113.528 126.503 114.176C126.901 114.812 127.446 115.318 128.139 115.693C128.832 116.057 129.616 116.239 130.491 116.239Z" fill="#1B1F40"/>
<path d="M100.871 162.982C100.083 162.982 99.3737 163.119 98.7422 163.393C98.1172 163.66 97.5833 164.05 97.1406 164.564C96.7044 165.072 96.3691 165.688 96.1348 166.41C95.9004 167.133 95.7832 167.947 95.7832 168.852C95.7832 170.049 95.9688 171.091 96.3398 171.977C96.7174 172.855 97.2773 173.536 98.0195 174.018C98.7682 174.499 99.7025 174.74 100.822 174.74C101.46 174.74 102.059 174.688 102.619 174.584C103.186 174.473 103.736 174.337 104.27 174.174V175.619C103.749 175.814 103.202 175.958 102.629 176.049C102.056 176.146 101.376 176.195 100.588 176.195C99.1361 176.195 97.9219 175.896 96.9453 175.297C95.9753 174.691 95.2461 173.839 94.7578 172.738C94.276 171.638 94.0352 170.339 94.0352 168.842C94.0352 167.761 94.1849 166.775 94.4844 165.883C94.7904 164.984 95.2331 164.21 95.8125 163.559C96.3984 162.908 97.1146 162.406 97.9609 162.055C98.8138 161.697 99.7904 161.518 100.891 161.518C101.613 161.518 102.31 161.589 102.98 161.732C103.651 161.876 104.257 162.081 104.797 162.348L104.133 163.754C103.677 163.546 103.176 163.367 102.629 163.217C102.089 163.061 101.503 162.982 100.871 162.982ZM116.35 170.629C116.35 171.508 116.236 172.292 116.008 172.982C115.78 173.673 115.451 174.255 115.021 174.73C114.592 175.206 114.071 175.57 113.459 175.824C112.854 176.072 112.167 176.195 111.398 176.195C110.682 176.195 110.025 176.072 109.426 175.824C108.833 175.57 108.319 175.206 107.883 174.73C107.453 174.255 107.118 173.673 106.877 172.982C106.643 172.292 106.525 171.508 106.525 170.629C106.525 169.457 106.724 168.461 107.121 167.641C107.518 166.814 108.085 166.186 108.82 165.756C109.562 165.32 110.445 165.102 111.467 165.102C112.443 165.102 113.296 165.32 114.025 165.756C114.761 166.192 115.331 166.824 115.734 167.65C116.145 168.471 116.35 169.464 116.35 170.629ZM108.205 170.629C108.205 171.488 108.319 172.234 108.547 172.865C108.775 173.497 109.126 173.985 109.602 174.33C110.077 174.675 110.689 174.848 111.438 174.848C112.18 174.848 112.788 174.675 113.264 174.33C113.745 173.985 114.1 173.497 114.328 172.865C114.556 172.234 114.67 171.488 114.67 170.629C114.67 169.776 114.556 169.04 114.328 168.422C114.1 167.797 113.749 167.315 113.273 166.977C112.798 166.638 112.183 166.469 111.428 166.469C110.314 166.469 109.497 166.837 108.977 167.572C108.462 168.308 108.205 169.327 108.205 170.629ZM127.99 165.297V176H126.662L126.428 174.496H126.34C126.118 174.867 125.832 175.18 125.48 175.434C125.129 175.688 124.732 175.876 124.289 176C123.853 176.13 123.387 176.195 122.893 176.195C122.046 176.195 121.337 176.059 120.764 175.785C120.191 175.512 119.758 175.089 119.465 174.516C119.178 173.943 119.035 173.207 119.035 172.309V165.297H120.676V172.191C120.676 173.083 120.878 173.751 121.281 174.193C121.685 174.63 122.3 174.848 123.127 174.848C123.921 174.848 124.553 174.698 125.021 174.398C125.497 174.099 125.839 173.66 126.047 173.08C126.255 172.494 126.359 171.778 126.359 170.932V165.297H127.99ZM136.281 165.102C136.496 165.102 136.721 165.115 136.955 165.141C137.189 165.16 137.398 165.189 137.58 165.229L137.375 166.732C137.199 166.687 137.004 166.651 136.789 166.625C136.574 166.599 136.372 166.586 136.184 166.586C135.754 166.586 135.347 166.674 134.963 166.85C134.585 167.019 134.253 167.266 133.967 167.592C133.68 167.911 133.456 168.298 133.293 168.754C133.13 169.203 133.049 169.704 133.049 170.258V176H131.418V165.297H132.766L132.941 167.27H133.01C133.231 166.872 133.498 166.511 133.811 166.186C134.123 165.854 134.484 165.59 134.895 165.395C135.311 165.199 135.773 165.102 136.281 165.102ZM146.525 173.07C146.525 173.754 146.353 174.33 146.008 174.799C145.669 175.261 145.181 175.609 144.543 175.844C143.911 176.078 143.156 176.195 142.277 176.195C141.529 176.195 140.881 176.137 140.334 176.02C139.787 175.902 139.309 175.736 138.898 175.521V174.027C139.335 174.242 139.855 174.438 140.461 174.613C141.066 174.789 141.685 174.877 142.316 174.877C143.241 174.877 143.911 174.727 144.328 174.428C144.745 174.128 144.953 173.721 144.953 173.207C144.953 172.914 144.868 172.657 144.699 172.436C144.536 172.208 144.26 171.99 143.869 171.781C143.479 171.566 142.938 171.332 142.248 171.078C141.564 170.818 140.972 170.561 140.471 170.307C139.976 170.046 139.592 169.73 139.318 169.359C139.051 168.988 138.918 168.507 138.918 167.914C138.918 167.009 139.283 166.316 140.012 165.834C140.747 165.346 141.711 165.102 142.902 165.102C143.547 165.102 144.149 165.167 144.709 165.297C145.275 165.421 145.803 165.59 146.291 165.805L145.744 167.104C145.301 166.915 144.829 166.755 144.328 166.625C143.827 166.495 143.316 166.43 142.795 166.43C142.046 166.43 141.47 166.553 141.066 166.801C140.669 167.048 140.471 167.387 140.471 167.816C140.471 168.148 140.562 168.422 140.744 168.637C140.933 168.852 141.232 169.053 141.643 169.242C142.053 169.431 142.593 169.652 143.264 169.906C143.934 170.154 144.514 170.411 145.002 170.678C145.49 170.938 145.865 171.257 146.125 171.635C146.392 172.006 146.525 172.484 146.525 173.07ZM153.254 165.102C154.165 165.102 154.947 165.303 155.598 165.707C156.249 166.111 156.747 166.677 157.092 167.406C157.437 168.129 157.609 168.975 157.609 169.945V170.951H150.217C150.236 172.208 150.549 173.165 151.154 173.822C151.76 174.48 152.613 174.809 153.713 174.809C154.39 174.809 154.989 174.747 155.51 174.623C156.031 174.499 156.571 174.317 157.131 174.076V175.502C156.59 175.743 156.053 175.919 155.52 176.029C154.992 176.14 154.367 176.195 153.645 176.195C152.616 176.195 151.717 175.987 150.949 175.57C150.188 175.147 149.595 174.529 149.172 173.715C148.749 172.901 148.537 171.905 148.537 170.727C148.537 169.574 148.729 168.578 149.113 167.738C149.504 166.892 150.051 166.241 150.754 165.785C151.464 165.329 152.297 165.102 153.254 165.102ZM153.234 166.43C152.368 166.43 151.678 166.713 151.164 167.279C150.65 167.846 150.344 168.637 150.246 169.652H155.91C155.904 169.014 155.803 168.454 155.607 167.973C155.419 167.484 155.129 167.107 154.738 166.84C154.348 166.566 153.846 166.43 153.234 166.43ZM167.287 173.07C167.287 173.754 167.115 174.33 166.77 174.799C166.431 175.261 165.943 175.609 165.305 175.844C164.673 176.078 163.918 176.195 163.039 176.195C162.29 176.195 161.643 176.137 161.096 176.02C160.549 175.902 160.07 175.736 159.66 175.521V174.027C160.096 174.242 160.617 174.438 161.223 174.613C161.828 174.789 162.447 174.877 163.078 174.877C164.003 174.877 164.673 174.727 165.09 174.428C165.507 174.128 165.715 173.721 165.715 173.207C165.715 172.914 165.63 172.657 165.461 172.436C165.298 172.208 165.021 171.99 164.631 171.781C164.24 171.566 163.7 171.332 163.01 171.078C162.326 170.818 161.734 170.561 161.232 170.307C160.738 170.046 160.354 169.73 160.08 169.359C159.813 168.988 159.68 168.507 159.68 167.914C159.68 167.009 160.044 166.316 160.773 165.834C161.509 165.346 162.473 165.102 163.664 165.102C164.309 165.102 164.911 165.167 165.471 165.297C166.037 165.421 166.564 165.59 167.053 165.805L166.506 167.104C166.063 166.915 165.591 166.755 165.09 166.625C164.589 166.495 164.077 166.43 163.557 166.43C162.808 166.43 162.232 166.553 161.828 166.801C161.431 167.048 161.232 167.387 161.232 167.816C161.232 168.148 161.324 168.422 161.506 168.637C161.695 168.852 161.994 169.053 162.404 169.242C162.814 169.431 163.355 169.652 164.025 169.906C164.696 170.154 165.275 170.411 165.764 170.678C166.252 170.938 166.626 171.257 166.887 171.635C167.154 172.006 167.287 172.484 167.287 173.07Z" fill="#1B1F40"/>
<g filter="url(#filter1_d_2_267)">
<path d="M407.5 12.6188C412.45 9.76068 418.55 9.76068 423.5 12.6188L517.918 67.1312C522.869 69.9893 525.918 75.2714 525.918 80.9876V190.012C525.918 195.729 522.869 201.011 517.918 203.869L423.5 258.381C418.55 261.239 412.45 261.239 407.5 258.381L313.082 203.869C308.131 201.011 305.082 195.729 305.082 190.012V80.9876C305.082 75.2714 308.131 69.9893 313.082 67.1312L407.5 12.6188Z" fill="white"/>
</g>
<path d="M353.972 137V130.932L366.705 119.784C367.66 118.92 368.472 118.131 369.143 117.415C369.813 116.687 370.325 115.96 370.677 115.233C371.029 114.494 371.205 113.693 371.205 112.83C371.205 111.864 370.995 111.04 370.575 110.358C370.154 109.665 369.575 109.131 368.836 108.756C368.097 108.381 367.251 108.193 366.296 108.193C365.33 108.193 364.484 108.392 363.756 108.79C363.029 109.176 362.461 109.739 362.052 110.477C361.654 111.216 361.455 112.114 361.455 113.17H353.461C353.461 110.795 353.995 108.744 355.063 107.017C356.131 105.29 357.631 103.96 359.563 103.028C361.506 102.085 363.762 101.614 366.33 101.614C368.978 101.614 371.279 102.057 373.234 102.943C375.188 103.83 376.7 105.068 377.768 106.659C378.847 108.239 379.387 110.074 379.387 112.165C379.387 113.494 379.12 114.812 378.586 116.119C378.052 117.426 377.092 118.869 375.705 120.449C374.33 122.028 372.376 123.92 369.842 126.125L365.665 129.977V130.199H379.813V137H353.972ZM384.582 137V130.932L397.315 119.784C398.269 118.92 399.082 118.131 399.752 117.415C400.423 116.687 400.934 115.96 401.286 115.233C401.638 114.494 401.815 113.693 401.815 112.83C401.815 111.864 401.604 111.04 401.184 110.358C400.763 109.665 400.184 109.131 399.445 108.756C398.707 108.381 397.86 108.193 396.906 108.193C395.94 108.193 395.093 108.392 394.366 108.79C393.638 109.176 393.07 109.739 392.661 110.477C392.263 111.216 392.065 112.114 392.065 113.17H384.07C384.07 110.795 384.604 108.744 385.673 107.017C386.741 105.29 388.241 103.96 390.173 103.028C392.116 102.085 394.371 101.614 396.94 101.614C399.587 101.614 401.888 102.057 403.843 102.943C405.798 103.83 407.309 105.068 408.377 106.659C409.457 108.239 409.996 110.074 409.996 112.165C409.996 113.494 409.729 114.812 409.195 116.119C408.661 117.426 407.701 118.869 406.315 120.449C404.94 122.028 402.985 123.92 400.451 126.125L396.275 129.977V130.199H410.423V137H384.582ZM429.629 137.852C426.583 137.852 423.958 137.131 421.754 135.688C419.549 134.233 417.85 132.148 416.657 129.432C415.464 126.705 414.873 123.426 414.884 119.597C414.896 115.767 415.492 112.517 416.674 109.847C417.867 107.165 419.56 105.125 421.754 103.727C423.958 102.318 426.583 101.614 429.629 101.614C432.674 101.614 435.299 102.318 437.504 103.727C439.719 105.125 441.424 107.165 442.617 109.847C443.81 112.528 444.401 115.778 444.39 119.597C444.39 123.437 443.793 126.722 442.6 129.449C441.407 132.176 439.708 134.261 437.504 135.705C435.31 137.136 432.685 137.852 429.629 137.852ZM429.629 130.949C431.447 130.949 432.918 130.023 434.043 128.17C435.168 126.307 435.725 123.449 435.714 119.597C435.714 117.074 435.458 114.994 434.947 113.358C434.435 111.71 433.725 110.483 432.816 109.676C431.907 108.869 430.844 108.466 429.629 108.466C427.822 108.466 426.362 109.381 425.248 111.21C424.134 113.028 423.572 115.824 423.56 119.597C423.549 122.153 423.793 124.273 424.293 125.955C424.805 127.636 425.521 128.892 426.441 129.722C427.362 130.54 428.424 130.949 429.629 130.949ZM459.688 131.955V107.273H466.558V131.955H459.688ZM450.773 123.057V116.17H475.455V123.057H450.773Z" fill="#1B1F40"/>
<path d="M399.895 176H398.234V169.271H390.734V176H389.074V161.723H390.734V167.807H398.234V161.723H399.895V176ZM412.805 170.629C412.805 171.508 412.691 172.292 412.463 172.982C412.235 173.673 411.906 174.255 411.477 174.73C411.047 175.206 410.526 175.57 409.914 175.824C409.309 176.072 408.622 176.195 407.854 176.195C407.137 176.195 406.48 176.072 405.881 175.824C405.288 175.57 404.774 175.206 404.338 174.73C403.908 174.255 403.573 173.673 403.332 172.982C403.098 172.292 402.98 171.508 402.98 170.629C402.98 169.457 403.179 168.461 403.576 167.641C403.973 166.814 404.54 166.186 405.275 165.756C406.018 165.32 406.9 165.102 407.922 165.102C408.898 165.102 409.751 165.32 410.48 165.756C411.216 166.192 411.786 166.824 412.189 167.65C412.6 168.471 412.805 169.464 412.805 170.629ZM404.66 170.629C404.66 171.488 404.774 172.234 405.002 172.865C405.23 173.497 405.581 173.985 406.057 174.33C406.532 174.675 407.144 174.848 407.893 174.848C408.635 174.848 409.243 174.675 409.719 174.33C410.201 173.985 410.555 173.497 410.783 172.865C411.011 172.234 411.125 171.488 411.125 170.629C411.125 169.776 411.011 169.04 410.783 168.422C410.555 167.797 410.204 167.315 409.729 166.977C409.253 166.638 408.638 166.469 407.883 166.469C406.77 166.469 405.952 166.837 405.432 167.572C404.917 168.308 404.66 169.327 404.66 170.629ZM424.445 165.297V176H423.117L422.883 174.496H422.795C422.574 174.867 422.287 175.18 421.936 175.434C421.584 175.688 421.187 175.876 420.744 176C420.308 176.13 419.842 176.195 419.348 176.195C418.501 176.195 417.792 176.059 417.219 175.785C416.646 175.512 416.213 175.089 415.92 174.516C415.633 173.943 415.49 173.207 415.49 172.309V165.297H417.131V172.191C417.131 173.083 417.333 173.751 417.736 174.193C418.14 174.63 418.755 174.848 419.582 174.848C420.376 174.848 421.008 174.698 421.477 174.398C421.952 174.099 422.294 173.66 422.502 173.08C422.71 172.494 422.814 171.778 422.814 170.932V165.297H424.445ZM432.736 165.102C432.951 165.102 433.176 165.115 433.41 165.141C433.645 165.16 433.853 165.189 434.035 165.229L433.83 166.732C433.654 166.687 433.459 166.651 433.244 166.625C433.029 166.599 432.827 166.586 432.639 166.586C432.209 166.586 431.802 166.674 431.418 166.85C431.04 167.019 430.708 167.266 430.422 167.592C430.135 167.911 429.911 168.298 429.748 168.754C429.585 169.203 429.504 169.704 429.504 170.258V176H427.873V165.297H429.221L429.396 167.27H429.465C429.686 166.872 429.953 166.511 430.266 166.186C430.578 165.854 430.939 165.59 431.35 165.395C431.766 165.199 432.229 165.102 432.736 165.102ZM442.98 173.07C442.98 173.754 442.808 174.33 442.463 174.799C442.124 175.261 441.636 175.609 440.998 175.844C440.367 176.078 439.611 176.195 438.732 176.195C437.984 176.195 437.336 176.137 436.789 176.02C436.242 175.902 435.764 175.736 435.354 175.521V174.027C435.79 174.242 436.311 174.438 436.916 174.613C437.521 174.789 438.14 174.877 438.771 174.877C439.696 174.877 440.367 174.727 440.783 174.428C441.2 174.128 441.408 173.721 441.408 173.207C441.408 172.914 441.324 172.657 441.154 172.436C440.992 172.208 440.715 171.99 440.324 171.781C439.934 171.566 439.393 171.332 438.703 171.078C438.02 170.818 437.427 170.561 436.926 170.307C436.431 170.046 436.047 169.73 435.773 169.359C435.507 168.988 435.373 168.507 435.373 167.914C435.373 167.009 435.738 166.316 436.467 165.834C437.202 165.346 438.166 165.102 439.357 165.102C440.002 165.102 440.604 165.167 441.164 165.297C441.73 165.421 442.258 165.59 442.746 165.805L442.199 167.104C441.757 166.915 441.285 166.755 440.783 166.625C440.282 166.495 439.771 166.43 439.25 166.43C438.501 166.43 437.925 166.553 437.521 166.801C437.124 167.048 436.926 167.387 436.926 167.816C436.926 168.148 437.017 168.422 437.199 168.637C437.388 168.852 437.688 169.053 438.098 169.242C438.508 169.431 439.048 169.652 439.719 169.906C440.389 170.154 440.969 170.411 441.457 170.678C441.945 170.938 442.32 171.257 442.58 171.635C442.847 172.006 442.98 172.484 442.98 173.07Z" fill="#1B1F40"/>
<g filter="url(#filter2_d_2_267)">
<path d="M692.5 12.6188C697.45 9.76068 703.55 9.76068 708.5 12.6188L802.918 67.1312C807.869 69.9893 810.918 75.2714 810.918 80.9876V190.012C810.918 195.729 807.869 201.011 802.918 203.869L708.5 258.381C703.55 261.239 697.45 261.239 692.5 258.381L598.082 203.869C593.131 201.011 590.082 195.729 590.082 190.012V80.9876C590.082 75.2714 593.131 69.9893 598.082 67.1312L692.5 12.6188Z" fill="white"/>
</g>
<path d="M642.447 102.091V137H634.027V112.097H633.703C633.408 112.494 632.953 112.898 632.339 113.307C631.726 113.705 630.942 114.034 629.987 114.295C629.044 114.557 627.936 114.688 626.663 114.688V108.04C627.709 108.04 628.68 107.864 629.578 107.511C630.476 107.148 631.254 106.676 631.913 106.097C632.584 105.506 633.107 104.864 633.482 104.17C633.857 103.466 634.05 102.773 634.061 102.091H642.447ZM664.636 137.852C661.591 137.852 658.966 137.131 656.761 135.688C654.557 134.233 652.858 132.148 651.665 129.432C650.472 126.705 649.881 123.426 649.892 119.597C649.903 115.767 650.5 112.517 651.682 109.847C652.875 107.165 654.568 105.125 656.761 103.727C658.966 102.318 661.591 101.614 664.636 101.614C667.682 101.614 670.307 102.318 672.511 103.727C674.727 105.125 676.432 107.165 677.625 109.847C678.818 112.528 679.409 115.778 679.398 119.597C679.398 123.437 678.801 126.722 677.608 129.449C676.415 132.176 674.716 134.261 672.511 135.705C670.318 137.136 667.693 137.852 664.636 137.852ZM664.636 130.949C666.455 130.949 667.926 130.023 669.051 128.17C670.176 126.307 670.733 123.449 670.722 119.597C670.722 117.074 670.466 114.994 669.955 113.358C669.443 111.71 668.733 110.483 667.824 109.676C666.915 108.869 665.852 108.466 664.636 108.466C662.83 108.466 661.369 109.381 660.256 111.21C659.142 113.028 658.58 115.824 658.568 119.597C658.557 122.153 658.801 124.273 659.301 125.955C659.813 127.636 660.528 128.892 661.449 129.722C662.369 130.54 663.432 130.949 664.636 130.949ZM698.668 137.852C695.622 137.852 692.997 137.131 690.793 135.688C688.588 134.233 686.889 132.148 685.696 129.432C684.503 126.705 683.912 123.426 683.923 119.597C683.935 115.767 684.531 112.517 685.713 109.847C686.906 107.165 688.599 105.125 690.793 103.727C692.997 102.318 695.622 101.614 698.668 101.614C701.713 101.614 704.338 102.318 706.543 103.727C708.759 105.125 710.463 107.165 711.656 109.847C712.849 112.528 713.44 115.778 713.429 119.597C713.429 123.437 712.832 126.722 711.639 129.449C710.446 132.176 708.747 134.261 706.543 135.705C704.349 137.136 701.724 137.852 698.668 137.852ZM698.668 130.949C700.486 130.949 701.957 130.023 703.082 128.17C704.207 126.307 704.764 123.449 704.753 119.597C704.753 117.074 704.497 114.994 703.986 113.358C703.474 111.71 702.764 110.483 701.855 109.676C700.946 108.869 699.884 108.466 698.668 108.466C696.861 108.466 695.401 109.381 694.287 111.21C693.173 113.028 692.611 115.824 692.599 119.597C692.588 122.153 692.832 124.273 693.332 125.955C693.844 127.636 694.56 128.892 695.48 129.722C696.401 130.54 697.463 130.949 698.668 130.949ZM725.847 130.131L725.881 120.193H727.04L734.403 110.818H743.847L732.903 124.25H730.705L725.847 130.131ZM718.33 137V102.091H726.665V137H718.33ZM734.591 137L727.739 126.125L733.227 120.21L744.222 137H734.591ZM756.759 135.261V110.58H763.628V135.261H756.759ZM747.844 126.364V119.494H772.526V126.364H747.844Z" fill="#1B1F40"/>
<path d="M628.984 172.201C628.984 173.048 628.773 173.77 628.35 174.369C627.933 174.962 627.347 175.414 626.592 175.727C625.837 176.039 624.948 176.195 623.926 176.195C623.385 176.195 622.874 176.169 622.393 176.117C621.911 176.065 621.468 175.99 621.064 175.893C620.661 175.795 620.306 175.674 620 175.531V173.939C620.488 174.141 621.084 174.33 621.787 174.506C622.49 174.675 623.226 174.76 623.994 174.76C624.71 174.76 625.316 174.665 625.811 174.477C626.305 174.281 626.68 174.005 626.934 173.646C627.194 173.282 627.324 172.846 627.324 172.338C627.324 171.85 627.217 171.443 627.002 171.117C626.787 170.785 626.429 170.486 625.928 170.219C625.433 169.945 624.756 169.656 623.896 169.35C623.291 169.135 622.757 168.9 622.295 168.646C621.833 168.386 621.445 168.093 621.133 167.768C620.82 167.442 620.583 167.064 620.42 166.635C620.264 166.205 620.186 165.714 620.186 165.16C620.186 164.398 620.378 163.747 620.762 163.207C621.152 162.66 621.689 162.243 622.373 161.957C623.063 161.664 623.854 161.518 624.746 161.518C625.508 161.518 626.211 161.589 626.855 161.732C627.507 161.876 628.102 162.068 628.643 162.309L628.125 163.734C627.611 163.52 627.064 163.34 626.484 163.197C625.911 163.054 625.319 162.982 624.707 162.982C624.095 162.982 623.577 163.074 623.154 163.256C622.738 163.432 622.419 163.682 622.197 164.008C621.976 164.333 621.865 164.721 621.865 165.17C621.865 165.671 621.969 166.088 622.178 166.42C622.393 166.752 622.731 167.048 623.193 167.309C623.662 167.562 624.281 167.829 625.049 168.109C625.889 168.415 626.602 168.741 627.188 169.086C627.773 169.424 628.219 169.841 628.525 170.336C628.831 170.824 628.984 171.446 628.984 172.201ZM635.664 165.121C636.94 165.121 637.887 165.408 638.506 165.98C639.124 166.553 639.434 167.468 639.434 168.725V176H638.252L637.939 174.418H637.861C637.562 174.809 637.249 175.137 636.924 175.404C636.598 175.665 636.221 175.863 635.791 176C635.368 176.13 634.847 176.195 634.229 176.195C633.577 176.195 632.998 176.081 632.49 175.854C631.989 175.626 631.592 175.281 631.299 174.818C631.012 174.356 630.869 173.77 630.869 173.061C630.869 171.993 631.292 171.173 632.139 170.6C632.985 170.027 634.274 169.714 636.006 169.662L637.852 169.584V168.93C637.852 168.005 637.653 167.357 637.256 166.986C636.859 166.615 636.299 166.43 635.576 166.43C635.016 166.43 634.482 166.511 633.975 166.674C633.467 166.837 632.985 167.029 632.529 167.25L632.031 166.02C632.513 165.772 633.066 165.561 633.691 165.385C634.316 165.209 634.974 165.121 635.664 165.121ZM637.832 170.727L636.201 170.795C634.867 170.847 633.926 171.065 633.379 171.449C632.832 171.833 632.559 172.377 632.559 173.08C632.559 173.692 632.744 174.145 633.115 174.438C633.486 174.73 633.978 174.877 634.59 174.877C635.54 174.877 636.318 174.613 636.924 174.086C637.529 173.559 637.832 172.768 637.832 171.713V170.727ZM646.23 174.867C646.497 174.867 646.771 174.844 647.051 174.799C647.331 174.753 647.559 174.698 647.734 174.633V175.893C647.546 175.977 647.282 176.049 646.943 176.107C646.611 176.166 646.286 176.195 645.967 176.195C645.4 176.195 644.886 176.098 644.424 175.902C643.962 175.701 643.59 175.362 643.311 174.887C643.037 174.411 642.9 173.754 642.9 172.914V166.566H641.377V165.775L642.91 165.141L643.555 162.816H644.531V165.297H647.666V166.566H644.531V172.865C644.531 173.536 644.684 174.037 644.99 174.369C645.303 174.701 645.716 174.867 646.23 174.867ZM651.523 165.297V176H649.902V165.297H651.523ZM650.732 161.293C650.999 161.293 651.227 161.381 651.416 161.557C651.611 161.726 651.709 161.993 651.709 162.357C651.709 162.715 651.611 162.982 651.416 163.158C651.227 163.334 650.999 163.422 650.732 163.422C650.452 163.422 650.218 163.334 650.029 163.158C649.847 162.982 649.756 162.715 649.756 162.357C649.756 161.993 649.847 161.726 650.029 161.557C650.218 161.381 650.452 161.293 650.732 161.293ZM661.885 173.07C661.885 173.754 661.712 174.33 661.367 174.799C661.029 175.261 660.54 175.609 659.902 175.844C659.271 176.078 658.516 176.195 657.637 176.195C656.888 176.195 656.24 176.137 655.693 176.02C655.146 175.902 654.668 175.736 654.258 175.521V174.027C654.694 174.242 655.215 174.438 655.82 174.613C656.426 174.789 657.044 174.877 657.676 174.877C658.6 174.877 659.271 174.727 659.688 174.428C660.104 174.128 660.312 173.721 660.312 173.207C660.312 172.914 660.228 172.657 660.059 172.436C659.896 172.208 659.619 171.99 659.229 171.781C658.838 171.566 658.298 171.332 657.607 171.078C656.924 170.818 656.331 170.561 655.83 170.307C655.335 170.046 654.951 169.73 654.678 169.359C654.411 168.988 654.277 168.507 654.277 167.914C654.277 167.009 654.642 166.316 655.371 165.834C656.107 165.346 657.07 165.102 658.262 165.102C658.906 165.102 659.508 165.167 660.068 165.297C660.635 165.421 661.162 165.59 661.65 165.805L661.104 167.104C660.661 166.915 660.189 166.755 659.688 166.625C659.186 166.495 658.675 166.43 658.154 166.43C657.406 166.43 656.829 166.553 656.426 166.801C656.029 167.048 655.83 167.387 655.83 167.816C655.83 168.148 655.921 168.422 656.104 168.637C656.292 168.852 656.592 169.053 657.002 169.242C657.412 169.431 657.952 169.652 658.623 169.906C659.294 170.154 659.873 170.411 660.361 170.678C660.85 170.938 661.224 171.257 661.484 171.635C661.751 172.006 661.885 172.484 661.885 173.07ZM669.258 166.566H666.592V176H664.971V166.566H663.076V165.785L664.971 165.248V164.535C664.971 163.637 665.104 162.908 665.371 162.348C665.638 161.781 666.025 161.365 666.533 161.098C667.041 160.831 667.66 160.697 668.389 160.697C668.799 160.697 669.173 160.733 669.512 160.805C669.857 160.876 670.16 160.958 670.42 161.049L670 162.328C669.779 162.257 669.528 162.191 669.248 162.133C668.975 162.068 668.695 162.035 668.408 162.035C667.79 162.035 667.331 162.237 667.031 162.641C666.738 163.038 666.592 163.663 666.592 164.516V165.297H669.258V166.566ZM672.852 165.297V176H671.23V165.297H672.852ZM672.061 161.293C672.327 161.293 672.555 161.381 672.744 161.557C672.939 161.726 673.037 161.993 673.037 162.357C673.037 162.715 672.939 162.982 672.744 163.158C672.555 163.334 672.327 163.422 672.061 163.422C671.781 163.422 671.546 163.334 671.357 163.158C671.175 162.982 671.084 162.715 671.084 162.357C671.084 161.993 671.175 161.726 671.357 161.557C671.546 161.381 671.781 161.293 672.061 161.293ZM680.41 165.102C681.322 165.102 682.103 165.303 682.754 165.707C683.405 166.111 683.903 166.677 684.248 167.406C684.593 168.129 684.766 168.975 684.766 169.945V170.951H677.373C677.393 172.208 677.705 173.165 678.311 173.822C678.916 174.48 679.769 174.809 680.869 174.809C681.546 174.809 682.145 174.747 682.666 174.623C683.187 174.499 683.727 174.317 684.287 174.076V175.502C683.747 175.743 683.21 175.919 682.676 176.029C682.148 176.14 681.523 176.195 680.801 176.195C679.772 176.195 678.874 175.987 678.105 175.57C677.344 175.147 676.751 174.529 676.328 173.715C675.905 172.901 675.693 171.905 675.693 170.727C675.693 169.574 675.885 168.578 676.27 167.738C676.66 166.892 677.207 166.241 677.91 165.785C678.62 165.329 679.453 165.102 680.41 165.102ZM680.391 166.43C679.525 166.43 678.835 166.713 678.32 167.279C677.806 167.846 677.5 168.637 677.402 169.652H683.066C683.06 169.014 682.959 168.454 682.764 167.973C682.575 167.484 682.285 167.107 681.895 166.84C681.504 166.566 681.003 166.43 680.391 166.43ZM691.328 176.195C689.974 176.195 688.9 175.733 688.105 174.809C687.318 173.884 686.924 172.51 686.924 170.688C686.924 168.845 687.327 167.455 688.135 166.518C688.942 165.574 690.016 165.102 691.357 165.102C691.924 165.102 692.419 165.176 692.842 165.326C693.265 165.476 693.63 165.678 693.936 165.932C694.242 166.179 694.499 166.462 694.707 166.781H694.824C694.798 166.579 694.772 166.303 694.746 165.951C694.72 165.6 694.707 165.313 694.707 165.092V160.805H696.328V176H695.02L694.775 174.477H694.707C694.505 174.796 694.248 175.085 693.936 175.346C693.63 175.606 693.262 175.814 692.832 175.971C692.409 176.12 691.908 176.195 691.328 176.195ZM691.582 174.848C692.728 174.848 693.538 174.522 694.014 173.871C694.489 173.22 694.727 172.253 694.727 170.971V170.678C694.727 169.317 694.499 168.272 694.043 167.543C693.594 166.814 692.773 166.449 691.582 166.449C690.586 166.449 689.84 166.833 689.346 167.602C688.851 168.363 688.604 169.405 688.604 170.727C688.604 172.042 688.848 173.057 689.336 173.773C689.831 174.49 690.579 174.848 691.582 174.848ZM713.262 172.201C713.262 173.048 713.05 173.77 712.627 174.369C712.21 174.962 711.624 175.414 710.869 175.727C710.114 176.039 709.225 176.195 708.203 176.195C707.663 176.195 707.152 176.169 706.67 176.117C706.188 176.065 705.745 175.99 705.342 175.893C704.938 175.795 704.583 175.674 704.277 175.531V173.939C704.766 174.141 705.361 174.33 706.064 174.506C706.768 174.675 707.503 174.76 708.271 174.76C708.988 174.76 709.593 174.665 710.088 174.477C710.583 174.281 710.957 174.005 711.211 173.646C711.471 173.282 711.602 172.846 711.602 172.338C711.602 171.85 711.494 171.443 711.279 171.117C711.064 170.785 710.706 170.486 710.205 170.219C709.71 169.945 709.033 169.656 708.174 169.35C707.568 169.135 707.035 168.9 706.572 168.646C706.11 168.386 705.723 168.093 705.41 167.768C705.098 167.442 704.86 167.064 704.697 166.635C704.541 166.205 704.463 165.714 704.463 165.16C704.463 164.398 704.655 163.747 705.039 163.207C705.43 162.66 705.967 162.243 706.65 161.957C707.34 161.664 708.132 161.518 709.023 161.518C709.785 161.518 710.488 161.589 711.133 161.732C711.784 161.876 712.38 162.068 712.92 162.309L712.402 163.734C711.888 163.52 711.341 163.34 710.762 163.197C710.189 163.054 709.596 162.982 708.984 162.982C708.372 162.982 707.855 163.074 707.432 163.256C707.015 163.432 706.696 163.682 706.475 164.008C706.253 164.333 706.143 164.721 706.143 165.17C706.143 165.671 706.247 166.088 706.455 166.42C706.67 166.752 707.008 167.048 707.471 167.309C707.939 167.562 708.558 167.829 709.326 168.109C710.166 168.415 710.879 168.741 711.465 169.086C712.051 169.424 712.497 169.841 712.803 170.336C713.109 170.824 713.262 171.446 713.262 172.201ZM719.395 174.867C719.661 174.867 719.935 174.844 720.215 174.799C720.495 174.753 720.723 174.698 720.898 174.633V175.893C720.71 175.977 720.446 176.049 720.107 176.107C719.775 176.166 719.45 176.195 719.131 176.195C718.564 176.195 718.05 176.098 717.588 175.902C717.126 175.701 716.755 175.362 716.475 174.887C716.201 174.411 716.064 173.754 716.064 172.914V166.566H714.541V165.775L716.074 165.141L716.719 162.816H717.695V165.297H720.83V166.566H717.695V172.865C717.695 173.536 717.848 174.037 718.154 174.369C718.467 174.701 718.88 174.867 719.395 174.867ZM731.904 165.297V176H730.576L730.342 174.496H730.254C730.033 174.867 729.746 175.18 729.395 175.434C729.043 175.688 728.646 175.876 728.203 176C727.767 176.13 727.301 176.195 726.807 176.195C725.96 176.195 725.251 176.059 724.678 175.785C724.105 175.512 723.672 175.089 723.379 174.516C723.092 173.943 722.949 173.207 722.949 172.309V165.297H724.59V172.191C724.59 173.083 724.792 173.751 725.195 174.193C725.599 174.63 726.214 174.848 727.041 174.848C727.835 174.848 728.467 174.698 728.936 174.398C729.411 174.099 729.753 173.66 729.961 173.08C730.169 172.494 730.273 171.778 730.273 170.932V165.297H731.904ZM739.141 176.195C737.786 176.195 736.712 175.733 735.918 174.809C735.13 173.884 734.736 172.51 734.736 170.688C734.736 168.845 735.14 167.455 735.947 166.518C736.755 165.574 737.829 165.102 739.17 165.102C739.736 165.102 740.231 165.176 740.654 165.326C741.077 165.476 741.442 165.678 741.748 165.932C742.054 166.179 742.311 166.462 742.52 166.781H742.637C742.611 166.579 742.585 166.303 742.559 165.951C742.533 165.6 742.52 165.313 742.52 165.092V160.805H744.141V176H742.832L742.588 174.477H742.52C742.318 174.796 742.061 175.085 741.748 175.346C741.442 175.606 741.074 175.814 740.645 175.971C740.221 176.12 739.72 176.195 739.141 176.195ZM739.395 174.848C740.54 174.848 741.351 174.522 741.826 173.871C742.301 173.22 742.539 172.253 742.539 170.971V170.678C742.539 169.317 742.311 168.272 741.855 167.543C741.406 166.814 740.586 166.449 739.395 166.449C738.398 166.449 737.653 166.833 737.158 167.602C736.663 168.363 736.416 169.405 736.416 170.727C736.416 172.042 736.66 173.057 737.148 173.773C737.643 174.49 738.392 174.848 739.395 174.848ZM751.699 165.102C752.611 165.102 753.392 165.303 754.043 165.707C754.694 166.111 755.192 166.677 755.537 167.406C755.882 168.129 756.055 168.975 756.055 169.945V170.951H748.662C748.682 172.208 748.994 173.165 749.6 173.822C750.205 174.48 751.058 174.809 752.158 174.809C752.835 174.809 753.434 174.747 753.955 174.623C754.476 174.499 755.016 174.317 755.576 174.076V175.502C755.036 175.743 754.499 175.919 753.965 176.029C753.438 176.14 752.812 176.195 752.09 176.195C751.061 176.195 750.163 175.987 749.395 175.57C748.633 175.147 748.04 174.529 747.617 173.715C747.194 172.901 746.982 171.905 746.982 170.727C746.982 169.574 747.174 168.578 747.559 167.738C747.949 166.892 748.496 166.241 749.199 165.785C749.909 165.329 750.742 165.102 751.699 165.102ZM751.68 166.43C750.814 166.43 750.124 166.713 749.609 167.279C749.095 167.846 748.789 168.637 748.691 169.652H754.355C754.349 169.014 754.248 168.454 754.053 167.973C753.864 167.484 753.574 167.107 753.184 166.84C752.793 166.566 752.292 166.43 751.68 166.43ZM763.877 165.102C765.146 165.102 766.107 165.414 766.758 166.039C767.409 166.658 767.734 167.654 767.734 169.027V176H766.133V169.135C766.133 168.243 765.928 167.576 765.518 167.133C765.114 166.69 764.492 166.469 763.652 166.469C762.467 166.469 761.634 166.804 761.152 167.475C760.671 168.145 760.43 169.118 760.43 170.395V176H758.809V165.297H760.117L760.361 166.84H760.449C760.677 166.462 760.967 166.146 761.318 165.893C761.67 165.632 762.064 165.437 762.5 165.307C762.936 165.17 763.395 165.102 763.877 165.102ZM774.531 174.867C774.798 174.867 775.072 174.844 775.352 174.799C775.632 174.753 775.859 174.698 776.035 174.633V175.893C775.846 175.977 775.583 176.049 775.244 176.107C774.912 176.166 774.587 176.195 774.268 176.195C773.701 176.195 773.187 176.098 772.725 175.902C772.262 175.701 771.891 175.362 771.611 174.887C771.338 174.411 771.201 173.754 771.201 172.914V166.566H769.678V165.775L771.211 165.141L771.855 162.816H772.832V165.297H775.967V166.566H772.832V172.865C772.832 173.536 772.985 174.037 773.291 174.369C773.604 174.701 774.017 174.867 774.531 174.867ZM785.127 173.07C785.127 173.754 784.954 174.33 784.609 174.799C784.271 175.261 783.783 175.609 783.145 175.844C782.513 176.078 781.758 176.195 780.879 176.195C780.13 176.195 779.482 176.137 778.936 176.02C778.389 175.902 777.91 175.736 777.5 175.521V174.027C777.936 174.242 778.457 174.438 779.062 174.613C779.668 174.789 780.286 174.877 780.918 174.877C781.842 174.877 782.513 174.727 782.93 174.428C783.346 174.128 783.555 173.721 783.555 173.207C783.555 172.914 783.47 172.657 783.301 172.436C783.138 172.208 782.861 171.99 782.471 171.781C782.08 171.566 781.54 171.332 780.85 171.078C780.166 170.818 779.574 170.561 779.072 170.307C778.577 170.046 778.193 169.73 777.92 169.359C777.653 168.988 777.52 168.507 777.52 167.914C777.52 167.009 777.884 166.316 778.613 165.834C779.349 165.346 780.312 165.102 781.504 165.102C782.148 165.102 782.751 165.167 783.311 165.297C783.877 165.421 784.404 165.59 784.893 165.805L784.346 167.104C783.903 166.915 783.431 166.755 782.93 166.625C782.428 166.495 781.917 166.43 781.396 166.43C780.648 166.43 780.072 166.553 779.668 166.801C779.271 167.048 779.072 167.387 779.072 167.816C779.072 168.148 779.163 168.422 779.346 168.637C779.535 168.852 779.834 169.053 780.244 169.242C780.654 169.431 781.195 169.652 781.865 169.906C782.536 170.154 783.115 170.411 783.604 170.678C784.092 170.938 784.466 171.257 784.727 171.635C784.993 172.006 785.127 172.484 785.127 173.07Z" fill="#1B1F40"/>
<defs>
<filter id="filter0_d_2_267" x="0.0817566" y="0.47522" width="260.836" height="290.05" filterUnits="userSpaceOnUse" color-interpolation-filters="sRGB">
<feFlood flood-opacity="0" result="BackgroundImageFix"/>
<feColorMatrix in="SourceAlpha" type="matrix" values="0 0 0 0 0 0 0 0 0 0 0 0 0 0 0 0 0 0 127 0" result="hardAlpha"/>
<feOffset dy="10"/>
<feGaussianBlur stdDeviation="10"/>
<feColorMatrix type="matrix" values="0 0 0 0 0.105882 0 0 0 0 0.121569 0 0 0 0 0.25098 0 0 0 0.07 0"/>
<feBlend mode="normal" in2="BackgroundImageFix" result="effect1_dropShadow_2_267"/>
<feBlend mode="normal" in="SourceGraphic" in2="effect1_dropShadow_2_267" result="shape"/>
</filter>
<filter id="filter1_d_2_267" x="285.082" y="0.47522" width="260.836" height="290.05" filterUnits="userSpaceOnUse" color-interpolation-filters="sRGB">
<feFlood flood-opacity="0" result="BackgroundImageFix"/>
<feColorMatrix in="SourceAlpha" type="matrix" values="0 0 0 0 0 0 0 0 0 0 0 0 0 0 0 0 0 0 127 0" result="hardAlpha"/>
<feOffset dy="10"/>
<feGaussianBlur stdDeviation="10"/>
<feColorMatrix type="matrix" values="0 0 0 0 0.105882 0 0 0 0 0.121569 0 0 0 0 0.25098 0 0 0 0.07 0"/>
<feBlend mode="normal" in2="BackgroundImageFix" result="effect1_dropShadow_2_267"/>
<feBlend mode="normal" in="SourceGraphic" in2="effect1_dropShadow_2_267" result="shape"/>
</filter>
<filter id="filter2_d_2_267" x="570.082" y="0.47522" width="260.836" height="290.05" filterUnits="userSpaceOnUse" color-interpolation-filters="sRGB">
<feFlood flood-opacity="0" result="BackgroundImageFix"/>
<feColorMatrix in="SourceAlpha" type="matrix" values="0 0 0 0 0 0 0 0 0 0 0 0 0 0 0 0 0 0 127 0" result="hardAlpha"/>
<feOffset dy="10"/>
<feGaussianBlur stdDeviation="10"/>
<feColorMatrix type="matrix" values="0 0 0 0 0.105882 0 0 0 0 0.121569 0 0 0 0 0.25098 0 0 0 0.07 0"/>
<feBlend mode="normal" in2="BackgroundImageFix" result="effect1_dropShadow_2_267"/>
<feBlend mode="normal" in="SourceGraphic" in2="effect1_dropShadow_2_267" result="shape"/>
</filter>
</defs>
</svg>
